<svg id="Layer_1" data-name="Layer 1" xmlns="http://www.w3.org/2000/svg" xmlns:xlink="http://www.w3.org/1999/xlink" viewBox="0 0 1080 1080"><defs><style>.cls-1{fill:#8d8070;}.cls-2{fill:#005172;}.cls-3{fill:url(#linear-gradient);}.cls-4{fill:url(#linear-gradient-2);}</style><linearGradient id="linear-gradient" x1="1382.11" y1="3079.66" x2="1382.11" y2="2752" gradientTransform="matrix(0.71, 0.71, -0.71, 0.71, 1566.77, -2441.48)" gradientUnits="userSpaceOnUse"><stop offset="0" stop-color="#01796f"/><stop offset="0" stop-color="#01796f"/><stop offset="1" stop-color="#c5d12d"/></linearGradient><linearGradient id="linear-gradient-2" x1="1382.11" y1="3080.81" x2="1382.11" y2="2589.32" xlink:href="#linear-gradient"/></defs><polygon class="cls-1" points="597.3 711.87 597.28 253.53 482.7 138.96 482.72 826.45 482.72 826.45 597.3 941.03 597.29 711.87 597.3 711.87"/><polygon class="cls-2" points="482.72 826.45 482.7 368.12 597.28 253.53 597.3 711.87 482.72 826.45"/><path class="cls-3" d="M310.84,654.58,482.72,826.45V368.12L310.84,540A81,81,0,0,0,310.84,654.58Z"/><path class="cls-4" d="M769.17,425.4,597.29,253.53V711.87L769.17,540A81.05,81.05,0,0,0,769.17,425.4Z"/></svg>