<?xml version="1.0" encoding="UTF-8"?>
<svg width="668px" height="834px" viewBox="0 0 668 834" version="1.1" xmlns="http://www.w3.org/2000/svg" xmlns:xlink="http://www.w3.org/1999/xlink">
    <title>Group 86</title>
    <g id="Page-1" stroke="none" stroke-width="1" fill="none" fill-rule="evenodd">
        <g id="Group-86">
            <path d="M333.998731,786.680202 C334.870694,786.691539 335.739825,786.702876 336.608956,786.71138 C336.83544,784.225649 337.260097,781.737085 337.260097,779.251355 C337.302563,710.631599 337.299732,642.011843 337.302563,573.389252 C337.302563,571.090589 337.531878,568.752246 337.180828,566.507436 C336.951513,565.047743 335.867222,563.724098 335.165123,562.340933 C334.446037,563.755276 333.31928,565.110099 333.10412,566.598135 C332.755902,569.024344 332.999372,571.538418 332.999372,574.01281 C332.996541,641.926812 332.982385,709.837979 333.036175,777.751981 C333.039006,780.728054 333.664668,783.704128 333.998731,786.680202 M334.177087,270.697049 C334.949963,270.67154 335.720008,270.648865 336.492883,270.623356 C336.761833,267.868362 337.262928,265.113368 337.262928,262.361208 C337.308225,192.335612 337.32238,122.312849 337.2148,52.2872527 C337.211969,50.2181729 335.86156,48.1519275 335.139643,46.085682 C334.440375,48.2114489 333.135262,50.3372158 333.1296,52.4658171 C333.005034,108.875168 333.007865,165.284519 332.999372,221.69387 C332.996541,236.01587 332.982385,250.337871 333.089965,264.662705 C333.10412,266.677932 333.797727,268.684656 334.177087,270.697049 M238.340489,282.930129 L238.360306,282.930129 C238.360306,267.735147 238.380123,252.540165 238.348982,237.348018 C238.340489,232.711011 236.808892,231.750165 233.003965,233.932619 C222.495119,239.958459 211.901342,245.845417 201.570852,252.160361 C197.601724,254.58657 192.882369,256.394889 192.947483,262.916742 C193.222095,291.892362 193.029584,320.870817 193.077711,349.849272 C193.086205,354.942609 195.636978,356.450486 200.248753,354.083799 C203.527105,352.394523 206.581805,350.274425 209.763902,348.395247 C218.194759,343.409615 226.744521,338.616719 234.994191,333.347652 C236.678664,332.273431 238.159302,329.475921 238.196105,327.449357 C238.465055,312.614338 238.340489,297.770816 238.340489,282.930129 M368.52901,700.889918 L368.398782,700.889918 C368.398782,716.079231 368.458234,731.26571 368.356316,746.455023 C368.328005,750.33809 369.650104,751.837465 373.429552,750.301244 C374.890372,749.708863 376.337037,749.022949 377.681784,748.206655 C386.987435,742.552115 396.094913,736.534777 405.624217,731.291219 C410.60969,728.547562 412.631058,725.282384 412.574437,719.590998 C412.345122,696.808445 412.509323,674.023058 412.523478,651.237671 C412.526309,645.585965 412.622565,639.928591 412.461195,634.27972 C412.302656,628.667695 409.717911,627.329879 405.106135,630.161401 C394.322678,636.779622 383.612828,643.525389 372.645352,649.826162 C369.327365,651.730849 368.435585,653.913303 368.469558,657.442076 C368.613941,671.925635 368.52901,686.409193 368.52901,700.889918 M371.17887,245.573318 L371.119418,245.573318 C371.119418,259.903822 371.161883,274.23716 371.093689,288.564829 C371.074121,292.949577 372.229188,296.104215 376.509731,298.490743 C387.112001,304.400375 397.363222,310.942068 407.79563,317.163479 C414.629777,321.236449 416.348222,320.250093 416.362378,312.183516 C416.410505,284.052534 416.319912,255.921552 416.495796,227.79057 C416.523747,223.334962 414.878909,220.401404 411.291973,218.170766 C400.531164,211.481686 389.832637,204.696238 379.012376,198.109195 C377.347721,197.09733 374.278866,195.878557 373.429552,196.604152 C372.014029,197.811587 371.297774,200.501391 371.272294,202.581808 C371.096769,216.912312 371.17887,231.242815 371.17887,245.573318 M368.299695,131.558518 L368.526179,131.558518 C368.526179,146.419046 368.387457,161.282409 368.662069,176.137268 C368.704535,178.59182 369.845447,182.083746 371.662979,183.268507 C382.10388,190.068127 392.853364,196.397244 403.594356,202.717857 C410.686129,206.890029 412.47535,205.781796 412.486674,197.44879 C412.514985,169.853501 412.305487,142.252543 412.645213,114.660088 C412.715989,108.880837 410.63517,105.247193 406.097002,102.500702 C395.4098,96.0383702 384.722598,89.5788732 373.970282,83.2270816 C370.162524,80.9794374 368.311019,82.1216828 368.305357,86.4695848 C368.288371,101.49734 368.299695,116.527929 368.299695,131.558518 M371.190194,587.575203 C371.190194,602.415891 371.0996,617.259413 371.235491,632.1001 C371.286449,637.831168 373.135123,638.840198 378.007355,635.92648 C388.725698,629.518002 399.415731,623.064173 409.961381,616.380762 C413.695531,614.011241 416.540734,611.012492 416.498268,605.723584 C416.263291,577.456553 416.359547,549.183853 416.302926,520.913987 C416.28877,514.230576 413.621924,512.5413 407.758826,516.021889 C397.666144,522.010883 388.043416,528.833177 377.749729,534.433865 C372.730283,537.166184 371.051473,540.380343 371.12508,545.700429 C371.317591,559.656798 371.190194,573.616001 371.190194,587.575203 M238.448068,551.411657 L238.300854,551.411657 C238.300854,536.732527 238.286699,522.056233 238.312178,507.377103 C238.31784,504.449214 237.96679,502.229913 234.852639,500.424428 C223.60489,493.911079 212.677049,486.850698 201.508569,480.201299 C199.566471,479.047716 196.803369,478.078367 194.855609,478.61406 C193.782642,478.903164 193.117346,482.50563 193.108853,484.62006 C192.987118,510.971067 193.292871,537.324908 192.862552,563.670246 C192.721,572.405731 193.550496,579.559645 203.357243,582.167252 C203.671489,582.249449 203.903635,582.609412 204.203726,582.790811 C213.373486,588.337645 222.483795,593.989351 231.749812,599.368958 C236.095469,601.894369 238.453731,600.338308 238.450902,595.44621 C238.445237,580.769915 238.448068,566.090786 238.448068,551.411657 M248.223673,164.788507 C248.223673,149.933648 248.274632,135.075954 248.198194,120.221095 C248.169883,114.912346 245.715366,113.682236 241.197015,116.321021 C231.20342,122.154125 221.161696,127.907868 211.134128,133.68712 C205.749477,136.787905 202.210669,140.257157 202.355052,147.654825 C202.895782,175.233108 202.53907,202.831232 202.655143,230.420852 C202.663636,232.750692 203.677151,235.077699 204.223543,237.407539 C206.842261,236.761306 209.75824,236.645097 212.03157,235.375306 C222.336581,229.624398 232.47456,223.573048 242.640849,217.578385 C246.335365,215.398766 248.447326,212.570078 248.345408,207.763011 C248.039655,193.443845 248.234997,179.116176 248.223673,164.788507 M248.24066,668.969401 L248.203856,668.969401 C248.203856,654.307278 248.302943,639.642321 248.093445,624.983032 C248.062304,622.81475 247.193172,619.665781 245.630434,618.670922 C233.482412,610.907621 221.105075,603.501449 208.713583,596.129289 C205.239889,594.06021 202.977882,595.17978 202.708933,599.42848 C202.643819,600.485694 202.595691,601.545744 202.595691,602.605793 C202.587198,630.86999 202.573043,659.134187 202.595691,687.401218 C202.598522,691.105721 202.544732,694.597647 206.661074,696.918985 C218.126814,703.389819 229.332098,710.322654 240.732723,716.909697 C245.86258,719.877268 248.218011,718.383562 248.229335,712.42858 C248.263308,697.939353 248.24066,683.455794 248.24066,668.969401 M476.870342,527.67676 L476.808059,527.67676 C476.808059,513.170527 476.884498,498.667128 476.774087,484.163729 C476.72879,478.126551 473.80715,476.666857 468.705603,479.716624 C458.760135,485.668772 448.690102,491.416845 438.838059,497.516379 C434.764182,500.038956 429.857978,502.229913 429.770216,508.241582 C429.668298,515.310466 429.569211,522.379349 429.594691,529.445398 C429.671129,550.833448 429.761722,572.221497 430.008024,593.609547 C430.030672,595.638946 430.667657,598.821928 431.947291,599.397302 C433.747836,600.207928 436.796874,599.743093 438.659703,598.677375 C449.474302,592.484308 459.954837,585.701694 470.851537,579.66735 C475.406691,577.144774 476.980753,573.978798 476.926963,569.069694 C476.768425,555.272049 476.870342,541.474405 476.870342,527.67676 M429.631494,281.033945 L430.121265,281.033945 C430.121265,295.341773 429.914599,309.658105 430.285466,323.960265 C430.364735,326.984523 431.678341,331.281406 433.900713,332.735431 C445.516498,340.357014 457.525799,347.391885 469.580397,354.316217 C473.478748,356.558192 476.488151,354.511787 476.791073,350.007996 C476.966598,347.366376 476.850525,344.704916 476.850525,342.051959 C476.853356,316.41521 476.842032,290.77846 476.86468,265.141711 C476.870342,260.725785 476.244681,257.188509 471.604595,254.634754 C460.36817,248.453024 449.556402,241.506018 438.441712,235.094705 C436.547742,234.000643 433.628932,233.104987 431.89067,233.827748 C430.560078,234.383281 429.75606,237.620116 429.72775,239.677858 C429.543732,253.461331 429.631494,267.247638 429.631494,281.033945 M256.663024,677.897623 C256.663024,692.395353 256.716814,706.895918 256.620189,721.393648 C256.59791,724.885574 257.614256,727.419489 260.745394,729.287329 C272.072412,736.047268 283.260709,743.033955 294.587728,749.788225 C299.779868,752.883342 302.57128,751.165722 302.565626,745.066188 C302.531645,716.782151 302.307993,688.492445 302.520321,660.211242 C302.565626,654.213745 300.221511,650.764334 295.227544,648.040518 C285.035776,642.490849 275.061998,636.538701 264.918357,630.895499 C262.933793,629.7901 260.595348,629.319597 258.421104,628.55999 C257.837908,630.858652 256.773435,633.157315 256.747955,635.461646 C256.592248,649.607916 256.671517,663.751352 256.663024,677.897623 M256.719645,155.565513 L256.691334,155.565513 C256.691334,169.717452 256.677179,183.869391 256.696997,198.02133 C256.708321,205.481354 258.831606,206.81917 265.091051,203.10333 C275.834873,196.734532 286.394678,190.045452 297.240419,183.863722 C301.203884,181.607575 302.701508,178.563476 302.690248,174.399808 C302.622239,145.390175 302.574111,116.380542 302.373107,87.3709099 C302.333472,81.8382472 299.54206,80.5202717 294.788732,83.3914743 C283.957147,89.9416707 273.102913,96.4578549 262.342104,103.129929 C258.752337,105.352064 256.555444,108.364984 256.634714,113.106861 C256.872521,127.2588 256.719645,141.413574 256.719645,155.565513 M253.449786,563.32162 L253.503576,563.32162 C253.503576,577.827853 253.605493,592.339756 253.438462,606.843155 C253.390334,610.887781 254.998368,613.537903 258.276721,615.541793 C269.558442,622.440615 280.777881,629.43864 292.107731,636.260934 C296.897862,639.146309 299.117403,637.955879 299.128727,632.494075 C299.182517,602.94875 299.222152,573.40059 298.933385,543.858098 C298.907905,541.361031 297.02809,537.937129 294.947271,536.568135 C283.934498,529.320687 272.624466,522.52957 261.334251,515.712944 C255.522112,512.206846 253.5149,513.397275 253.475265,520.33011 C253.390334,534.660613 253.449786,548.993951 253.449786,563.32162 M253.4328,270.728227 L253.495083,270.728227 C253.495083,285.404522 253.418644,300.080817 253.537548,314.757111 C253.577183,319.82494 255.808048,321.270461 259.669596,318.957627 C269.79625,312.897774 279.758704,306.554485 289.961797,300.622179 C296.880876,296.597393 299.581694,291.393516 299.383521,282.995319 C298.75786,256.664153 299.230645,230.307478 299.08343,203.96214 C299.066444,201.38571 297.710372,198.820618 296.9743,196.247023 C294.395217,197.057649 291.804809,197.842765 289.237049,198.693072 C288.758602,198.851796 288.37358,199.293955 287.931937,199.58306 C279.263271,205.263109 271.013601,211.804802 261.781557,216.336937 C254.890789,219.718324 253.240288,224.171097 253.362023,230.945208 C253.602662,244.20149 253.4328,257.46911 253.4328,270.728227 M467.375011,188.744483 L467.349532,188.744483 C467.349532,176.361182 466.576656,163.915525 467.595833,151.617255 C468.405512,141.886911 463.638029,137.156371 456.277307,132.984199 C446.810287,127.613095 437.59806,121.794162 428.196154,116.304015 C426.791954,115.484886 424.442185,114.575058 423.451319,115.190113 C422.166024,115.989401 421.18365,118.265389 421.149678,119.926322 C421.01945,125.926653 421.455431,131.938322 421.475248,137.941488 C421.551687,160.922445 421.826298,183.906237 421.393148,206.878692 C421.277075,212.952716 424.054332,215.764397 428.524555,218.363502 C438.249201,224.012373 447.849281,229.885159 457.624886,235.44333 C459.722691,236.636594 462.904788,238.053772 464.572275,237.251649 C466.185971,236.475036 467.216472,232.985944 467.256107,230.667441 C467.496746,216.696901 467.375011,202.720692 467.375011,188.744483 M467.312728,644.783843 L467.366518,644.783843 C467.366518,631.006039 467.369349,617.2254 467.363687,603.444762 C467.360856,595.140099 465.124329,593.623719 458.038219,597.742038 C448.302248,603.402247 438.959794,609.762541 429.110582,615.20167 C423.895793,618.081376 421.245933,620.686149 421.350682,627.556628 C421.781001,655.806653 421.138354,684.07085 420.9682,712.332212 C420.934518,718.023599 423.875976,719.812077 428.725559,716.955047 C439.780797,710.447366 450.654848,703.625071 461.727073,697.148568 C465.919853,694.699684 467.403322,691.332469 467.358025,686.658617 C467.230628,672.702248 467.312728,658.743045 467.312728,644.783843 M249.058832,364.383849 C246.938378,364.383849 244.820755,364.372511 242.700301,364.386683 C234.127891,364.440536 232.941682,365.531763 231.308168,374.12553 C230.187074,380.018156 229.000865,385.905113 227.571186,391.72688 C222.231832,413.474893 216.810377,435.203065 211.340795,456.917065 C210.460339,460.417495 211.901342,462.016072 215.145722,462.291004 C217.421883,462.486575 219.734849,462.424219 222.025166,462.330685 C226.215115,462.157789 228.935751,460.420329 229.589723,455.823004 C230.308809,450.760844 231.554469,445.775212 232.471729,440.735728 C233.069079,437.459212 234.425151,434.981985 238.147977,434.913961 C242.56158,434.831764 247.023309,434.54266 251.368966,435.092525 C253.13554,435.316439 255.604212,437.223961 256.108139,438.870721 C257.854895,444.564942 259.043934,450.4519 260.122563,456.324685 C260.901101,460.553544 263.19708,462.461066 267.367212,462.433033 C272.134695,462.401544 276.905009,462.390207 281.675323,462.407213 C285.517054,462.421385 287.402531,460.465679 286.706093,456.749838 C285.868103,452.260219 284.53468,447.861298 283.4787,443.41136 C278.436605,422.142353 272.862274,400.981052 268.547759,379.564659 C264.742832,360.679345 262.00804,364.789162 249.058832,364.383849 M380.773288,412.879678 L380.682694,412.879678 C380.682694,426.836046 380.651552,440.792415 380.708173,454.748783 C380.719498,458.115998 380.600594,462.393041 385.300131,462.225814 C398.410709,461.758145 411.484484,463.611814 424.685655,460.712268 C439.928012,457.364894 447.775674,447.08185 451.076674,433.709359 C454.841967,418.466193 455.292103,402.851727 449.03549,387.481015 C443.631021,374.207726 431.137611,364.409358 416.80119,364.344168 C407.274717,364.301652 397.748245,364.307321 388.221772,364.364008 C381.461232,364.406523 380.866712,364.865689 380.810091,371.537763 C380.691187,385.318401 380.773288,399.09904 380.773288,412.879678 M295.822064,413.058242 L295.839051,413.058242 C295.839051,424.545887 295.81074,436.036366 295.844713,447.52401 C295.890009,462.520587 295.912658,462.520587 310.753005,462.438391 C320.20304,462.384538 320.939112,461.690121 321.026874,452.169519 C321.089158,445.100636 321.035368,438.031752 321.043861,430.960034 C321.046692,429.369961 320.774911,427.692022 321.191075,426.212488 C321.612901,424.707445 322.728334,423.395138 323.538013,421.994966 C324.911071,422.859445 326.462484,423.534022 327.589241,424.645089 C328.410245,425.452881 328.752801,426.804868 329.168965,427.96412 C332.611518,437.598096 335.776629,447.342611 339.615528,456.815029 C340.546943,459.110857 343.502556,461.814832 345.795703,462.086931 C352.06081,462.832366 358.473131,462.461066 364.820338,462.364697 C367.829741,462.322182 369.013119,460.598894 367.832572,457.750366 C363.393491,447.027998 359.005368,436.282955 354.33131,425.659789 C352.782727,422.142353 352.70912,419.429874 355.63076,416.626696 C362.832944,409.708034 365.454493,400.723126 365.380886,391.162843 C365.25632,374.961665 355.984641,363.346474 338.553886,364.210953 C326.935269,364.789162 315.262863,364.298818 303.615936,364.389517 C297.175305,364.440536 295.875854,365.750008 295.841882,372.229346 C295.773936,385.839923 295.822064,399.447665 295.822064,413.058242 M136.114217,433.814231 L135.862254,433.814231 C135.862254,365.194474 135.819789,296.577553 135.947186,227.957797 C135.95851,222.836115 133.594586,219.942238 129.614134,217.586888 C124.178524,214.36706 118.62401,211.300287 113.471505,207.666643 C109.89023,205.141232 107.24037,205.217759 103.489233,207.553268 C76.2658867,224.497048 48.9377913,241.2736 21.4879609,257.843245 C17.080021,260.504705 14.9142701,263.296546 14.9171012,268.678988 C15.0331741,378.683174 15.0190188,488.687361 14.8604702,598.691547 C14.8548181,604.144848 17.2498838,607.169106 21.4964541,609.649167 C28.9307831,613.994235 36.2773497,618.486689 43.6890304,622.87994 C64.6048047,635.277413 85.4837753,647.74291 106.552426,659.885291 C108.372789,660.931168 111.821004,660.482048 113.904655,659.471475 C119.280813,656.872371 124.291766,653.524996 129.49523,650.56026 C134.155133,647.904468 136.28408,644.457892 136.261611,638.61345 C136.032117,570.347988 136.114217,502.082527 136.114217,433.814231 M531.860597,220.673502 L531.860597,227.74522 C531.871921,364.108916 531.883245,500.472612 531.8974,636.839143 C531.8974,638.074922 531.738862,639.347548 531.959683,640.540812 C532.126715,641.442137 532.568358,642.578714 533.264796,643.043548 C540.68497,648.003671 548.224047,652.790898 555.64139,657.759524 C559.743577,660.506015 563.588139,659.783254 567.463842,657.439242 C577.109219,651.608972 586.746102,645.767364 596.391479,639.937094 C613.125797,629.815609 629.704407,619.419192 646.679364,609.720026 C653.304014,605.933326 655.755701,601.494725 655.650952,593.765437 C655.096067,553.095264 655.045108,512.416588 655.005473,471.743581 C654.937528,407.539751 655.016797,343.338756 655.030953,279.134926 C655.033784,274.537601 655.37634,269.894926 654.846935,265.357122 C654.575154,263.041454 653.298352,259.983184 651.486482,258.849441 C636.39134,249.402533 621.035742,240.383613 605.824527,231.126606 C591.825,222.603698 578.012323,213.763342 563.840102,205.549379 C561.75362,204.339109 557.625954,204.922986 555.29034,206.212618 C547.479482,210.526508 540.053646,215.540483 531.860597,220.673502 M132.954769,202.009268 C133.302988,198.571195 133.736138,196.230017 133.747462,193.886004 C133.846549,171.77236 134.036229,149.655881 133.815407,127.54507 C133.758786,121.955721 136.091569,118.801082 140.587271,116.122616 C156.94506,106.372432 173.161297,96.3926647 189.448309,86.5234375 C201.058433,79.4885662 212.716684,72.5273881 224.312651,65.4641732 C241.468795,55.0195718 258.565487,44.4786022 275.730125,34.0481725 C293.786542,23.0763809 311.953369,12.285988 329.933348,1.18948469 C334.075169,-1.36710433 336.965668,0.710478543 340.096806,2.62650313 C352.27597,10.0695217 364.344723,17.6967734 376.583338,25.0349208 C399.395914,38.710688 422.330224,52.1767128 445.148462,65.8354739 C464.031545,77.1360508 482.824034,88.5840143 501.650496,99.9781249 C509.928477,104.986432 518.093216,110.190309 526.501425,114.969033 C531.008451,117.53696 532.919408,120.853156 532.919408,126.091046 C532.910915,148.377586 533.185527,170.666961 533.423334,192.956336 C533.451645,195.524262 533.881964,198.089354 534.252831,201.986593 C541.757936,197.638692 548.422221,194.183612 554.625044,190.036949 C558.495086,187.446348 561.297822,187.837489 565.099918,190.172998 C597.110565,209.823588 629.194819,229.357968 661.420625,248.654263 C666.374957,251.618999 667.909385,255.164779 667.906554,260.697441 C667.847102,364.366843 667.95185,468.039078 668,571.711313 C668,583.386025 667.728198,595.066406 667.892398,606.735449 C667.954681,611.196725 666.264547,613.70513 662.428478,615.986787 C643.961559,626.989756 625.726786,638.389536 607.344799,649.531389 C593.316962,658.034456 579.263645,666.509181 565.012155,674.626776 C563.027592,675.754849 559.451979,675.613132 557.294722,674.604101 C551.887422,672.070187 546.95857,668.532911 541.670174,665.712727 C536.653559,663.039929 534.920958,663.95826 534.753926,669.765855 C534.388721,682.319218 534.227352,694.881083 534.383059,707.43728 C534.442511,712.25285 532.859956,715.415991 528.749276,717.873378 C509.676513,729.26182 490.668865,740.766471 471.683864,752.307968 C451.348455,764.668594 431.095146,777.170938 410.751243,789.517392 C390.868801,801.583245 370.904258,813.50738 351.013323,825.559061 C347.862368,827.469417 344.790682,829.555503 341.905845,831.851331 C337.061924,835.706055 332.821016,833.716338 328.421569,831.012362 C309.801774,819.567233 291.156499,808.158951 272.485745,796.790349 C257.591607,787.723245 242.663497,778.707159 227.718401,769.719416 C211.253032,759.813342 194.762184,749.955452 178.262843,740.1089 C165.24569,732.342765 152.072829,724.828887 139.304807,716.671611 C137.243805,715.35647 136.060428,711.306175 135.975496,708.474654 C135.610291,696.456985 135.916044,684.419475 135.709378,672.393303 C135.672574,670.156997 134.407096,667.937696 133.704997,665.715561 C131.454314,666.48934 129.042262,666.965512 126.984091,668.09642 C122.511037,670.553806 118.134239,673.220935 113.882006,676.046788 C110.227125,678.470162 107.064846,676.965119 104.010146,675.151132 C80.5067949,661.189095 57.0289233,647.181708 33.5850242,633.120468 C25.2759016,628.134836 17.2442217,622.661695 8.77089841,617.985008 C3.88734256,615.29237 2.29346318,611.763597 2.32743574,606.452014 C2.48597437,580.801093 3.55611008,555.087816 2.21136282,529.507754 C-2.20790134,445.571139 1.59702565,361.60618 0.255109437,277.669564 C0.170178031,272.36365 0.63163867,267.026558 0.201319546,261.754656 C-0.209182249,256.72084 1.53191157,253.784447 5.92003421,251.174006 C27.7304193,238.201159 49.3596173,224.916533 71.0086327,211.668753 C80.3057906,205.983035 89.5208481,200.164103 98.7274125,194.333833 C109.230596,187.681599 108.774798,188.80117 119.201543,194.469882 C123.459438,196.782716 127.700346,199.129563 132.954769,202.009268" id="Fill-4" fill="#272E7E"></path>
            <path d="M297.015877,413.703739 C297.015877,400.147759 296.968067,386.588955 297.038376,373.030152 C297.069312,366.575461 298.360181,365.273793 304.761093,365.222969 C316.331107,365.129791 327.926432,365.61827 339.468322,365.045084 C356.781158,364.183894 365.991609,375.752078 366.118165,391.891628 C366.191286,401.418367 363.587049,410.366274 356.429614,417.258619 C353.53008,420.053957 353.600389,422.753294 355.138745,426.260174 C359.781937,436.840106 364.143894,447.544276 368.553661,458.225858 C369.723599,461.066373 368.548037,462.780283 365.561319,462.82546 C359.253215,462.918638 352.886051,463.288526 346.662318,462.545926 C344.384313,462.277687 341.448218,459.581173 340.522954,457.294078 C336.709406,447.857693 333.565197,438.153068 330.145377,428.55574 C329.731962,427.400898 329.391667,426.054053 328.576085,425.24651 C327.456769,424.139669 325.912788,423.467659 324.55161,422.609292 C323.744465,424.001314 322.639211,425.308629 322.217359,426.810771 C321.803943,428.284676 322.076741,429.953409 322.073929,431.537434 C322.065492,438.582252 322.118926,445.627069 322.057055,452.669064 C321.969872,462.150626 321.23866,462.845225 311.848219,462.89605 C297.108685,462.980757 297.086186,462.980757 297.041188,448.038402 C297.004628,436.594455 297.032751,425.147685 297.032751,413.703739 L297.015877,413.703739 Z" id="Fill-10" fill="#FFFFFF"></path>
            <path d="M322.076741,393.00694 L322.107677,393.00694 C322.107677,395.991458 321.815192,399.018329 322.222983,401.943552 C322.450784,403.567107 323.499791,405.851379 324.79066,406.41327 C330.322556,408.810485 338.717425,404.563829 339.712997,398.764208 C340.357026,395.020148 340.340151,391.019143 339.791743,387.252495 C339.026783,381.980882 333.35427,378.982246 326.629938,379.501784 C320.327458,379.987439 322.549216,384.829869 322.110489,388.271806 C321.910812,389.827595 322.076741,391.425738 322.076741,393.00694 L322.076741,393.00694 Z" id="Path" fill="#272E7E"></path>
            <path d="M381.100475,413.528317 C381.100475,399.75757 381.015734,385.986824 381.134371,372.216078 C381.19369,365.548794 381.784051,365.089958 388.532244,365.050305 C398.037338,364.990826 407.542431,364.985162 417.047525,365.027647 C431.351773,365.09279 443.817146,374.886957 449.206661,388.147885 C455.452059,403.507564 455.000108,419.113654 451.24609,434.345878 C447.952497,447.705938 440.122447,457.984432 424.911472,461.329403 C411.739926,464.224036 398.698316,462.37453 385.614335,462.841863 C380.928169,463.00897 381.046806,458.732165 381.032682,455.370199 C380.976189,441.423849 381.010085,427.474667 381.010085,413.528317 L381.100475,413.528317 Z" id="Fill-12" fill="#FFFFFF"></path>
            <path d="M406.40408,413.774729 L406.440801,413.774729 C406.440801,422.790007 406.384307,431.805286 406.460574,440.820565 C406.508593,446.697631 408.641237,448.108127 414.033577,446.278448 C420.524723,444.080567 424.383254,439.330764 425.555502,432.926885 C427.792659,420.722413 428.255909,408.387653 425.617645,396.140696 C424.340884,390.206983 421.123558,385.471342 415.815959,382.307639 C410.265436,379.00232 406.474697,380.948125 406.421028,387.258536 C406.347586,396.095379 406.40408,404.935054 406.40408,413.774729 L406.40408,413.774729 Z" id="Path" fill="#272E7E"></path>
            <path d="M269.64271,380.275371 C273.967942,401.652438 279.559789,422.780507 284.620567,444.010438 C285.679866,448.455623 287.017479,452.844218 287.858102,457.326186 C288.553888,461.038524 286.662486,462.988068 282.808684,462.976749 C278.02622,462.956943 273.240917,462.968261 268.458454,463 C264.275218,463.027681 261.972025,461.12341 261.191041,456.901758 C260.109022,451.03898 258.916247,445.162055 257.164002,439.477538 C256.658492,437.833584 254.182062,435.929313 252.409938,435.70578 C248.050626,435.156852 243.572037,435.448293 239.144566,435.52752 C235.410042,435.595429 234.049709,438.068434 233.450481,441.342196 C232.53318,446.370263 231.280765,451.347399 230.55942,456.400932 C229.903393,460.990422 227.177048,462.727751 222.971093,462.897523 C220.673579,462.990897 218.356186,463.053147 216.070032,462.860739 C212.818298,462.583445 211.369927,460.987593 212.25599,457.495958 C217.742759,435.816132 223.181249,414.124987 228.537381,392.414036 C229.971552,386.60219 231.158648,380.725265 232.283265,374.845511 C233.924752,366.263559 235.111848,365.177021 243.714034,365.120431 C245.838311,365.106283 247.965428,365.117601 250.089705,365.117601 C263.082442,365.522224 265.825827,361.419411 269.64271,380.275371 Z" id="Fill-14" fill="#FFFFFF"></path>
            <path d="M245.329961,394.190978 C244.730733,394.23908 244.131505,394.287182 243.532277,394.338114 C242.086747,401.301577 240.45378,408.236744 239.252484,415.24265 C238.289743,420.859259 242.606456,420.228274 246.099586,420.426341 C250.021546,420.652703 251.694273,418.889909 251.009846,415.033265 C250.092545,409.866551 249.274641,404.674371 248.084705,399.567077 C247.641674,397.665636 246.275662,395.976409 245.329961,394.190978" id="Path" fill="#272E7E"></path>
            <path d="M425.261984,666.581376 L425.307867,666.581376 C425.307867,679.52277 425.261984,692.461324 425.327941,705.402718 C425.356618,711.536888 426.632743,712.391695 431.777393,709.475125 C440.609902,704.462713 449.448146,699.433262 457.945135,693.90967 C459.926714,692.620358 461.632994,689.314722 461.655936,686.917852 C461.919764,660.685758 461.865278,634.450823 461.78785,608.213049 C461.773511,602.740574 460.004142,601.811929 455.269573,604.575146 C447.271564,609.24393 439.439881,614.196704 431.344371,618.683736 C427.13459,621.015288 425.101393,623.920499 425.187423,628.824995 C425.411104,641.408562 425.261984,653.994969 425.261984,666.581376 L425.261984,666.581376 Z M467.944797,644.345012 C467.944797,658.331486 467.858766,672.317961 467.99068,686.298756 C468.036563,690.98458 466.53389,694.355533 462.286829,696.812041 C451.071263,703.301197 440.056436,710.13682 428.858077,716.657215 C423.94571,719.519828 420.966172,717.727855 421.00029,712.022509 C421.172647,683.705933 421.823614,655.389357 421.387724,627.08414 C421.281619,620.197399 423.965784,617.587537 429.248083,614.702205 C439.224804,609.25245 448.685339,602.879729 458.550219,597.208462 C465.728066,593.082097 467.993548,594.60144 467.996415,602.922328 C468.002151,616.729889 467.999283,630.54029 467.999283,644.345012 L467.944797,644.345012 Z" id="Fill-16" fill="#FFFFFF"></path>
            <path d="M461.519777,186.127872 L461.599796,186.127872 C461.599796,173.346516 461.334019,160.553777 461.745545,147.783806 C461.888436,143.312751 460.262336,140.956268 456.695777,138.873001 C448.290929,133.966509 440.063266,128.752649 431.672707,123.814851 C430.25237,122.980975 428.003266,122.152791 426.820129,122.724836 C425.768451,123.231423 425.214034,125.684669 425.208318,127.281271 C425.102579,153.381874 425.142588,179.479632 425.07966,205.580235 C425.068285,209.758153 426.808697,212.404927 430.492427,214.516654 C438.780105,219.266616 446.799147,224.489014 455.012521,229.37843 C456.438573,230.226536 458.621948,231.131562 459.839379,230.599361 C460.865336,230.15254 461.4369,227.667988 461.451189,226.077078 C461.574076,212.760676 461.519777,199.444274 461.519777,186.127872 L461.519777,186.127872 Z M467.686952,189.059245 C467.686952,203.089991 467.809839,217.126429 467.566924,231.151484 C467.526914,233.482352 466.486668,236.98577 464.854853,237.765572 C463.174455,238.568142 459.962265,237.147991 457.844621,235.949828 C447.976569,230.36599 438.285702,224.471938 428.469091,218.797027 C423.953735,216.190098 421.153072,213.364026 421.270242,207.267909 C421.707489,184.201134 421.43028,161.122976 421.353119,138.047663 C421.333114,132.017004 420.89301,125.983498 421.02447,119.958531 C421.058764,118.290779 422.047569,116.005446 423.347877,115.202876 C424.348114,114.585295 426.720105,115.498859 428.137584,116.321351 C437.628403,121.83404 446.927749,127.676864 456.484299,133.067175 C463.911772,137.259323 468.727199,142.009286 467.909862,151.77958 C466.878189,164.128345 467.661232,176.625101 467.661232,189.059245 L467.686952,189.059245 Z" id="Fill-18" fill="#FFFFFF"></path>
            <path d="M259.349564,313.569342 C268.955861,307.725941 277.105372,302.203388 285.769709,297.677449 C292.77925,294.020355 294.535879,288.943581 294.388786,281.379528 C293.924877,257.651004 294.20492,233.908283 294.196433,210.174081 C294.193605,209.109321 294.187947,208.047401 294.196433,206.98548 C294.221892,203.561213 292.456777,203.038771 289.741216,204.293768 C288.471126,204.881515 287.285897,205.662339 286.103496,206.414769 C278.375463,211.318342 270.774721,216.432028 262.885451,221.057344 C259.703153,222.925642 258.41609,225.080716 258.430119,228.672505 C258.523581,254.712268 258.492465,280.74919 258.554697,306.786113 C258.557526,308.626018 258.973346,310.465923 259.349564,313.569342 L259.349564,313.569342 Z M254.07685,270.612678 C254.07685,257.327317 254.246573,244.039117 254.006133,230.759434 C253.884498,223.973366 255.533636,219.512733 262.418714,216.125377 C271.643135,211.585242 279.885993,205.032001 288.547501,199.341926 C288.991608,199.049472 289.373484,198.609371 289.851536,198.450367 C292.417175,197.59572 295.005444,196.809217 297.585227,196 C298.317863,198.575299 299.672815,201.147758 299.689787,203.728735 C299.83688,230.120578 299.364485,256.523779 299.98963,282.901425 C300.190468,291.314446 297.489051,296.527509 290.575686,300.559399 C280.383846,306.502178 270.429618,312.856663 260.308497,318.927213 C256.450137,321.24413 254.223943,319.793217 254.181513,314.719283 C254.062707,300.017081 254.139082,285.31488 254.139082,270.612678 L254.07685,270.612678 Z" id="Fill-20" fill="#FFFFFF"></path>
            <path d="M259.458633,520.748172 C258.991681,523.018815 258.490561,524.322805 258.487714,525.626794 C258.467783,552.143144 258.407991,578.662328 258.692718,605.175842 C258.718343,607.51452 260.492193,610.672443 262.448268,612.00478 C270.75091,617.677136 279.386682,622.870417 287.982593,628.10622 C293.230113,631.303829 294.388952,630.64333 294.394647,624.55143 C294.428814,598.562346 294.366174,572.573262 294.443154,546.587013 C294.454439,543.259004 293.531924,540.920327 290.476802,539.210966 C286.476387,536.97434 282.772087,534.213284 278.828617,531.874606 C272.655734,528.212096 266.383196,524.714001 259.458633,520.748172 L259.458633,520.748172 Z M254.020346,563.527542 C254.020346,549.194993 253.960553,534.862444 254.045972,520.529895 C254.088681,513.596071 256.104548,512.405472 261.949995,515.91207 C273.304912,522.726834 284.682606,529.521755 295.75849,536.767403 C297.851234,538.139427 299.738974,541.563818 299.7646,544.061242 C300.057869,573.605115 300.015159,603.157493 299.961061,632.707036 C299.952519,638.172454 297.720259,639.363053 292.89983,636.474432 C281.507899,629.653999 270.224165,622.65214 258.874943,615.755168 C255.577803,613.750993 253.963401,611.097657 254.008957,607.052454 C254.179793,592.546984 254.074444,578.035846 254.074444,563.527542 L254.020346,563.527542 Z" id="Fill-22" fill="#FFFFFF"></path>
            <path d="M262.884874,199.293198 C264.374878,198.919623 265.296588,198.894152 265.986457,198.483786 C275.050881,193.09242 283.934357,187.375592 293.176904,182.312519 C298.512078,179.391843 299.447925,175.339121 299.39986,169.783608 C299.179328,145.073891 299.351796,120.358513 299.340486,95.6431345 C299.340486,94.004499 299.004034,92.3630334 298.735437,89.9149856 C296.035336,91.0923126 294.03924,91.7092773 292.303258,92.7592493 C283.908911,97.8449626 275.607866,103.086332 267.222,108.180536 C263.990361,110.141804 262.197832,112.451176 262.228933,116.625593 C262.409882,142.221137 262.302444,167.81668 262.333544,193.415053 C262.333544,195.254627 262.669997,197.09703 262.884874,199.293198 L262.884874,199.293198 Z M258.086892,156.538679 C258.086892,142.405094 258.239568,128.271509 258.002072,114.143584 C257.922907,109.408805 260.116916,106.400395 263.701973,104.178756 C274.44866,97.5194996 285.288649,91.0102393 296.106019,84.472678 C300.853109,81.6057734 303.643685,82.921776 303.68044,88.4461568 C303.881181,117.409535 303.929245,146.375743 303.999964,175.344781 C304.008411,179.502217 302.512752,182.541758 298.554488,184.794529 C287.722981,190.967005 277.177035,197.643242 266.447312,204.005337 C260.196082,207.712785 258.075583,206.379801 258.064274,198.930944 C258.044482,184.800189 258.058619,170.669434 258.058619,156.538679 L258.086892,156.538679 Z" id="Fill-24" fill="#FFFFFF"></path>
            <path d="M298.311369,744.889783 C298.900922,743.057702 299.297736,742.398721 299.297736,741.74258 C299.331951,714.477236 299.385602,687.211893 299.198532,659.95223 C299.187195,658.25933 297.633951,655.9813 296.131726,654.998509 C286.996499,649.00519 277.694043,643.27035 268.377415,637.558233 C266.97156,636.694741 265.217074,636.416378 263.621315,635.865333 C263.187654,637.487222 262.379854,639.111952 262.377019,640.736681 C262.311828,666.763595 262.436541,692.790509 262.27755,718.814582 C262.249472,723.467216 264.491472,725.887267 268.113817,727.943743 C274.842651,731.764129 281.435433,735.825952 288.152929,739.669062 C291.270754,741.452856 294.54447,742.966808 298.311369,744.889783 M258.046077,678.443467 C258.048911,664.266852 257.972383,650.093077 258.128274,635.919302 C258.153784,633.607187 259.219513,631.306434 259.803397,629 C261.980205,629.764077 264.321408,630.23559 266.308313,631.340519 C276.463919,636.998667 286.446628,642.960742 296.653253,648.522316 C301.653111,651.251975 303.999991,654.708785 303.954633,660.719147 C303.742054,689.063857 303.96597,717.411407 303.999991,745.758957 C304.005652,751.868734 301.210947,753.590038 296.012682,750.491123 C284.672302,743.719524 273.470808,736.717849 262.130428,729.94341 C258.995596,728.071562 257.978052,725.535053 258.000358,722.032796 C258.097096,707.503966 258.040408,692.975137 258.046077,678.443467" id="Fill-26" fill="#FFFFFF"></path>
            <path d="M473.820218,351.700319 C474.304304,349.093989 474.875639,347.454019 474.875639,345.811207 C474.903783,319.023135 474.934742,292.235063 474.684256,265.449834 C474.667369,263.517113 472.947737,260.927837 471.264692,259.802311 C464.856177,255.521904 458.157773,251.684886 451.529731,247.742705 C447.260202,245.204589 442.931569,242.774477 437.778301,239.804341 C437.37302,242.987645 436.897377,245.017001 436.888933,247.049199 C436.818572,272.771433 436.88049,298.496508 436.722661,324.218742 C436.69755,328.43662 438.867496,330.71325 442.002799,332.617548 C443.49446,333.524222 445.042411,334.328574 446.539701,335.229563 C455.365833,340.547386 464.183522,345.87942 473.820218,351.700319 L473.820218,351.700319 Z M431.020794,281.596575 C431.020794,267.774782 430.933546,253.947306 431.116485,240.128355 C431.141815,238.064892 431.943935,234.816217 433.266729,234.261981 C434.994805,233.537211 437.893694,234.432515 439.779379,235.529618 C450.828931,241.961598 461.577337,248.925075 472.74791,255.123991 C477.357988,257.684846 477.982797,261.231956 477.977169,265.660159 C477.954653,291.368181 477.965911,317.076203 477.963096,342.787068 C477.963096,345.444558 478.078489,348.113418 477.901178,350.762381 C477.602846,355.278694 474.608265,357.330788 470.73276,355.08258 C458.751623,348.138998 446.809889,341.084569 435.262178,333.444639 C433.055645,331.98373 431.746923,327.677743 431.668118,324.642235 C431.302239,310.303156 431.50488,295.947023 431.50488,281.596575 L431.020794,281.596575 Z" id="Fill-28" fill="#FFFFFF"></path>
            <path d="M474.015568,484.716513 C472.593277,485.066181 471.851213,485.077553 471.297475,485.407321 C460.807381,491.681447 450.258258,497.867445 439.945247,504.43154 C438.371171,505.432216 437.052882,508.195446 437.038828,510.154156 C436.825203,536.916558 436.856123,563.684646 436.844876,590.44989 C436.842068,594.810791 438.773123,595.194574 442.132089,593.144893 C451.81828,587.223278 461.675933,581.577418 471.18223,575.382891 C473.073933,574.149103 474.729524,570.939548 474.7492,568.628327 C474.976879,542.929144 474.88131,517.227117 474.805417,491.522248 C474.799795,489.347483 474.313518,487.172718 474.015568,484.716513 L474.015568,484.716513 Z M477.945137,528.652451 C477.945137,542.491348 477.841135,556.330244 477.998543,570.169141 C478.05476,575.092922 476.491927,578.268364 471.969268,580.798482 C461.147494,586.850867 450.744535,593.65376 440.004275,599.865343 C438.157546,600.934247 435.13026,601.400471 433.339749,600.587422 C432.069244,600.010328 431.439614,596.817829 431.417127,594.782363 C431.169772,573.330368 431.082636,551.878373 431.003932,530.426377 C430.978634,523.339202 431.079825,516.249184 431.181015,509.159166 C431.268152,503.129523 436.139356,500.932016 440.18417,498.401897 C449.96593,492.284127 459.961315,486.518868 469.838644,480.548925 C474.900986,477.490039 477.804594,478.954097 477.849568,485.009325 C477.95638,499.556086 477.883298,514.102847 477.883298,528.652451 L477.945137,528.652451 Z" id="Fill-30" fill="#FFFFFF"></path>
            <path d="M244.242618,712.180948 C244.436541,708.487402 244.63902,706.414379 244.63902,704.338527 C244.664686,681.574861 244.251173,658.799882 244.852906,636.050357 C245.106717,626.494085 243.957436,618.959931 233.408577,616.029982 C232.772622,615.85181 232.307777,615.141948 231.70034,614.791259 C224.242847,610.49532 216.773947,606.216351 208.286949,601.349129 C207.950434,604.708954 207.488441,607.217511 207.482737,609.723239 C207.428553,631.960872 208.090173,654.22113 207.197556,676.416341 C206.746969,687.627072 209.208084,695.311117 220.789301,698.396613 C221.593512,698.608723 222.215207,699.426055 222.979494,699.870072 C229.65559,703.753103 236.345945,707.613508 244.242618,712.180948 L244.242618,712.180948 Z M248.99374,668.687045 C248.99374,683.141648 249.013702,697.596251 248.982332,712.050854 C248.968073,717.995595 246.598216,719.483195 241.430729,716.522136 C229.946475,709.949549 218.656144,703.034756 207.106298,696.575294 C202.95976,694.25905 203.013945,690.777615 203.011093,687.078413 C202.99113,658.873414 203.002537,630.67407 203.011093,602.469071 C203.011093,601.411348 203.059574,600.353625 203.128017,599.29873 C203.39894,595.059354 205.674687,593.942241 209.176714,596.00678 C221.656252,603.362762 234.127234,610.755509 246.364367,618.498945 C247.935717,619.494449 248.814075,622.63368 248.842594,624.800032 C249.05648,639.424323 248.953814,654.057098 248.953814,668.687045 L248.99374,668.687045 Z" id="Fill-32" fill="#FFFFFF"></path>
            <path d="M208.134323,232.114061 C210.750316,231.11741 212.499974,230.713054 213.980671,229.844543 C222.912985,224.599309 231.890597,219.416721 240.590756,213.798454 C242.473478,212.582539 244.393005,209.689403 244.409992,207.553721 C244.67329,180.385001 244.633654,153.213434 244.545888,126.041867 C244.531732,121.713552 243.025554,121.232311 239.279928,123.464811 C232.354908,127.593796 225.293991,131.483584 218.337828,135.558465 C211.698755,139.448253 206.831989,143.357975 207.27365,153.051122 C208.340998,176.443956 207.624714,199.91937 207.667182,223.360613 C207.672844,225.966145 207.938973,228.568829 208.134323,232.114061 M248.880396,165.042263 C248.886058,179.433911 248.690708,193.831254 248.996473,208.217206 C249.098395,213.043847 246.986349,215.888575 243.291683,218.075513 C233.124983,224.100983 222.986595,230.180557 212.681168,235.958288 C210.407746,237.231155 207.49165,237.347905 204.872825,238 C204.326411,235.659293 203.312856,233.321433 203.304362,230.977878 C203.188285,203.259577 203.545011,175.53558 203.004259,147.825821 C202.85987,140.396496 206.398821,136.911063 211.78369,133.792968 C221.811663,127.986761 231.853792,122.20903 241.847791,116.345872 C246.366324,113.697626 248.820941,114.933474 248.849253,120.266983 C248.925694,135.191127 248.874733,150.118119 248.880396,165.042263" id="Fill-34" fill="#FFFFFF"></path>
            <path d="M235.984562,595.506007 C236.241595,592.563554 236.567171,590.547167 236.570027,588.527948 C236.59573,563.116371 236.415807,537.704795 236.698544,512.293218 C236.755662,507.399514 234.705107,504.995142 230.855318,502.825827 C222.241843,497.977435 213.805436,492.817523 205.237656,487.889835 C203.641193,486.972265 201.753425,486.547465 199.999886,485.896104 C199.531514,487.663274 198.663313,489.433277 198.657601,491.20328 C198.566211,513.437348 199.128829,535.691239 198.374864,557.902651 C198.006449,568.757724 199.234498,577.392506 211.112297,580.991984 C211.752024,581.18456 212.223252,581.869905 212.834421,582.221074 C220.265542,586.500233 227.708087,590.759567 235.984562,595.506007 L235.984562,595.506007 Z M239.997139,551.890305 C239.997139,566.554425 239.994283,581.221376 240,595.888328 C240.002851,600.773535 237.623864,602.328306 233.240016,599.807822 C223.892569,594.429845 214.702197,588.78566 205.45185,583.243427 C205.149122,583.059347 204.914936,582.702515 204.597928,582.617554 C194.704998,580.01211 193.868212,572.866963 194.013864,564.138725 C194.447965,537.815243 194.139525,511.480433 194.259474,485.151286 C194.270897,483.038611 194.939184,479.441965 196.02158,479.150269 C197.986458,478.617852 200.773842,479.583566 202.733008,480.739023 C214.002495,487.380074 225.026371,494.437429 236.370112,500.942544 C239.511631,502.746531 239.865766,504.96399 239.860054,507.892283 C239.834351,522.556402 239.848631,537.223354 239.848631,551.890305 L239.997139,551.890305 Z" id="Fill-36" fill="#FFFFFF"></path>
            <path d="M413.792132,519.234859 C402.177318,526.028991 391.569868,532.325302 380.861968,538.446243 C377.288841,540.491271 376.344618,543.30566 376.364395,547.209033 C376.496727,573.149493 376.422107,599.084296 376.453677,625.024756 C376.453677,626.696418 376.749285,628.36808 376.938704,630.359366 C378.244545,630.031256 378.99074,630.014285 379.538907,629.680518 C390.149227,623.271066 400.857127,617.003041 411.220629,610.223052 C413.114816,608.981327 414.535457,605.626688 414.558417,603.233751 C414.793755,577.474317 414.719136,551.709226 414.670346,525.946964 C414.667476,524.131047 414.211149,522.317958 413.792132,519.234859 M372.068346,587.167694 C372.068346,573.237177 372.197495,559.306661 372.002336,545.378973 C371.927716,540.066992 373.629615,536.859437 378.718092,534.135562 C389.156214,528.546384 398.90841,521.738109 409.139892,515.758594 C415.083623,512.287987 417.790016,513.973791 417.801496,520.643468 C417.858895,548.855238 417.761316,577.067009 417.999524,605.278779 C418.042574,610.556818 415.158243,613.549404 411.372738,615.914057 C400.684928,622.583733 389.845009,629.02147 378.98213,635.416779 C374.040023,638.327338 372.165925,637.320381 372.114265,631.601091 C371.976506,616.788073 372.068346,601.977883 372.068346,587.167694" id="Fill-38" fill="#FFFFFF"></path>
            <path d="M408.973482,154.725902 L408.636445,154.725902 C408.636445,142.374481 408.462309,130.020226 408.726321,117.674474 C408.824624,113.067851 407.392215,110.06575 403.415175,107.735507 C395.301003,102.978636 387.417139,97.8163832 379.359139,92.9574584 C377.814385,92.0247943 375.896081,91.7271355 374.151913,91.1346528 C373.615462,92.8894221 372.618393,94.6413565 372.609967,96.3961257 C372.522899,121.651762 372.64648,146.907399 372.500086,172.163035 C372.475152,176.352937 373.840154,179.417405 377.210526,181.498181 C385.962261,186.901396 394.730848,192.284767 403.637058,197.424342 C407.442771,199.621347 408.990334,198.382519 408.981942,193.920473 C408.95663,180.854671 408.973482,167.791704 408.973482,154.725902 L408.973482,154.725902 Z M369.003668,132.463862 C369.003668,117.430678 368.992434,102.400328 369.009286,87.3671435 C369.012094,83.0213257 370.851756,81.8760482 374.629382,84.1240805 C385.296613,90.4769687 395.899244,96.9375811 406.501875,103.403863 C411.004132,106.147993 413.068485,109.782265 412.998269,115.565349 C412.661232,143.159733 412.869071,170.765457 412.838176,198.368345 C412.82975,206.699955 411.054687,207.80838 404.019034,203.635488 C393.363038,197.313783 382.698617,190.983573 372.340338,184.182779 C370.534379,182.997814 369.405305,179.505285 369.360366,177.050309 C369.090736,162.192885 369.22836,147.329791 369.22836,132.463862 L369.003668,132.463862 Z" id="Fill-40" fill="#FFFFFF"></path>
            <path d="M377.38715,201.64062 C376.856516,204.214519 376.472165,205.214064 376.472165,206.210778 C376.457824,233.385378 376.400458,260.56281 376.670077,287.734579 C376.690155,289.832774 378.574622,292.672841 380.44188,293.864933 C389.557308,299.672488 398.928015,305.086455 408.287248,310.503253 C409.836125,311.400861 411.786563,311.621724 413.550562,312.156891 C413.934913,310.503253 414.643381,308.849615 414.649118,307.193145 C414.72943,281.431499 414.626171,255.667022 414.821215,229.905376 C414.852766,225.759954 413.123187,223.302149 409.833257,221.393669 C404.604363,218.358223 399.329576,215.396399 394.16952,212.256185 C388.805816,208.991382 383.551107,205.551021 377.38715,201.64062 L377.38715,201.64062 Z M372.086548,245.142067 C372.086548,230.825637 372.006236,216.506375 372.181202,202.192777 C372.207016,200.114402 372.932694,197.42724 374.366839,196.218159 C375.227327,195.496108 378.336554,196.713684 380.023109,197.724555 C390.985717,204.30513 401.827857,211.081082 412.727363,217.766425 C416.361487,219.994872 418.027964,222.92555 417.999645,227.376782 C417.821447,255.480138 417.913233,283.583494 417.864472,311.68685 C417.85013,319.742674 416.109078,320.730893 409.185023,316.661923 C398.615371,310.446621 388.22929,303.911352 377.48754,298.007524 C373.150684,295.62334 371.980421,292.4718 372.000247,288.091357 C372.069338,273.777759 372.026314,259.458497 372.026314,245.142067 L372.086548,245.142067 Z" id="Fill-42" fill="#FFFFFF"></path>
            <path d="M408.77059,679.71295 L408.894536,679.71295 C408.894536,666.653602 408.925523,653.591423 408.849465,640.529244 C408.841014,639.252745 408.51988,637.206384 407.762117,636.880891 C406.593077,636.377084 404.657824,636.60998 403.508503,637.302617 C394.488588,642.739767 385.674312,648.522222 376.581156,653.829174 C373.536019,655.60665 372.46839,657.718109 372.474002,661.032478 C372.521912,687.001165 372.457122,712.967022 372.510644,738.935709 C372.521912,744.398332 373.792362,745.046488 378.310771,742.357632 C386.89124,737.245975 395.657628,732.414526 403.945132,726.861331 C406.271944,725.301794 408.45509,721.676085 408.556501,718.9193 C409.035384,705.865612 408.77059,692.78362 408.77059,679.71295 L408.77059,679.71295 Z M369.172543,701.065297 C369.172543,686.604913 369.257052,672.138868 369.113387,657.678484 C369.079584,654.154667 369.969744,651.972449 373.268407,650.070437 C384.181321,643.781344 394.837892,637.045053 405.567703,630.436128 C410.156535,627.608584 412.728422,628.944521 412.886172,634.548662 C413.049556,640.186769 412.950963,645.836196 412.948146,651.479963 C412.936878,674.233345 412.770677,696.989557 412.998851,719.740108 C413.05519,725.42067 411.043879,728.684092 406.083207,731.423895 C396.60131,736.657257 387.539141,742.666143 378.279784,748.31274 C376.941727,749.127888 375.502259,749.815669 374.048706,750.407217 C370.288061,751.94128 368.975356,750.441182 369.000349,746.563569 C369.102119,731.398421 369.042963,716.230444 369.042963,701.065297 L369.172543,701.065297 Z" id="Fill-44" fill="#FFFFFF"></path>
            <path d="M198.943456,350.039651 C201.360372,348.974046 203.166609,348.352918 204.800823,347.429774 C211.438025,343.677363 217.711114,339.081585 224.70383,336.201033 C234.689737,332.089621 237.247139,325.479451 236.874424,315.108323 C236.048715,291.884403 236.653661,268.609197 236.619257,245.356785 C236.610656,240.239602 235.025181,239.105616 231.137472,241.362191 C221.779446,246.792787 212.5189,252.385789 203.149406,257.79929 C199.703222,259.790888 198.410186,262.395067 198.438856,266.46659 C198.61948,292.559666 198.519133,318.652741 198.536336,344.748666 C198.539203,346.264447 198.765699,347.780227 198.943456,350.039651 L198.943456,350.039651 Z M239.970829,283.376658 C239.970829,298.292279 240.096979,313.213597 239.82461,328.126369 C239.787338,330.166404 238.287875,332.975726 236.581985,334.055577 C228.227424,339.35226 219.568957,344.173126 211.030905,349.182039 C207.80835,351.073915 204.714811,353.205125 201.394777,354.900406 C196.724365,357.282346 194.14116,355.763717 194.132559,350.643684 C194.083819,321.516199 194.281645,292.385864 194.000675,263.258378 C193.934733,256.699494 198.714092,254.884547 202.733685,252.445622 C213.195522,246.094731 223.923994,240.179768 234.566455,234.122345 C238.422626,231.925604 239.970829,232.894335 239.97943,237.552796 C240.010968,252.827416 239.990898,268.102037 239.990898,283.376658 L239.970829,283.376658 Z" id="Fill-46" fill="#FFFFFF"></path>
            <path d="M335.09764,271 C334.744723,268.984151 334.099465,266.97398 334.086296,264.955292 C333.986215,250.605853 333.999384,236.259253 334.002017,221.909814 C334.009919,165.406413 334.007285,108.900173 334.123168,52.3939329 C334.128435,50.2616755 335.342574,48.1322574 335.9931,46 C336.664695,48.0726337 337.920974,50.1424281 337.923607,52.2150618 C338.023688,122.358096 338.01052,192.503969 337.96838,262.649842 C337.96838,265.406728 337.502214,268.166454 337.252012,270.92618 C336.53301,270.948894 335.816642,270.974447 335.09764,271" id="Fill-48" fill="#FFFFFF"></path>
            <path d="M334.970619,786.968735 C334.670979,783.98431 334.109789,780.999886 334.10725,778.015462 C334.059003,709.910903 334.071699,641.809186 334.074238,573.704627 C334.074238,571.223292 333.855857,568.702164 334.168193,566.269148 C334.361182,564.776936 335.371832,563.418312 336.016819,562 C336.646571,563.387047 337.619131,564.714405 337.824816,566.178194 C338.139692,568.429302 337.934007,570.774207 337.934007,573.079319 C337.931467,641.894456 337.934007,710.70675 337.895917,779.519043 C337.895917,782.011748 337.515019,784.507295 337.311873,787 C336.532301,786.991473 335.75273,786.980104 334.970619,786.968735" id="Fill-50" fill="#FFFFFF"></path>
            <path d="M425.07788,666.914241 C425.07788,654.446955 425.228356,641.979668 425.002643,629.515194 C424.91583,624.657116 426.967506,621.7794 431.215545,619.469914 C439.38463,615.025349 447.287488,610.119449 455.358185,605.494851 C460.135783,602.757786 461.921233,603.677643 461.935702,609.098324 C462.013833,635.087779 462.068815,661.07442 461.802589,687.058249 C461.779439,689.432434 460.057651,692.706785 458.058063,693.983894 C449.483852,699.45521 440.565284,704.437061 431.652503,709.402035 C426.461098,712.291002 425.173375,711.444284 425.144437,705.36817 C425.07788,692.549256 425.124181,679.733155 425.124181,666.914241 L425.07788,666.914241 Z" id="Fill-54" fill="#272E7E"></path>
            <path d="M461.763507,185.873864 C461.763507,199.039783 461.818287,212.205701 461.69431,225.371619 C461.679894,226.944551 461.103258,229.401026 460.068196,229.842798 C458.83996,230.368984 456.63721,229.474186 455.198502,228.635664 C446.912238,223.801501 438.82203,218.63812 430.460803,213.941835 C426.744381,211.853972 424.988524,209.237108 425,205.106404 C425.063486,179.300754 425.023122,153.497917 425.1298,127.692267 C425.135566,126.113708 425.694903,123.688185 426.755914,123.187323 C427.949551,122.621743 430.218615,123.440568 431.651557,124.26502 C440.116578,129.147018 448.417258,134.301958 456.896696,139.153004 C460.494907,141.212728 462.135437,143.542581 461.991278,147.96311 C461.5761,160.588773 461.844236,173.236946 461.844236,185.873864 L461.763507,185.873864 Z" id="Fill-56" fill="#272E7E"></path>
            <path d="M258.945853,314 C258.558829,310.893686 258.131066,309.052065 258.128156,307.210444 C258.064137,281.149237 258.096147,255.08803 258,229.023981 C257.985569,225.428841 259.309597,223.271758 262.583292,221.401717 C270.699146,216.772087 278.518186,211.653632 286.468173,206.745485 C287.684532,205.992353 288.903802,205.210801 290.21037,204.622506 C293.003924,203.366338 294.819733,203.889268 294.793544,207.316729 C294.784814,208.379639 294.790634,209.44255 294.793544,210.508303 C294.802274,234.264642 294.514188,258.029508 294.99142,281.780163 C295.142738,289.35127 293.335658,294.432779 286.124799,298.093285 C277.211617,302.623445 268.828048,308.151149 258.945853,314" id="Fill-58" fill="#272E7E"></path>
            <path d="M259.963201,521 C266.700179,524.993205 272.802795,528.515446 278.808456,532.203237 C282.645099,534.558058 286.24905,537.338173 290.141095,539.590238 C293.113454,541.311398 294.010979,543.666219 294,547.0172 C293.925105,573.182824 293.986048,599.351303 293.952807,625.519782 C293.947266,631.653733 292.81982,632.318792 287.714453,629.09911 C279.351404,623.827166 270.949572,618.598037 262.871847,612.886527 C260.968761,611.544993 259.242965,608.365271 259.218033,606.010451 C258.941019,579.313921 258.999192,552.611683 259.018583,525.912298 C259.021353,524.599308 259.508898,523.286317 259.963201,521" id="Fill-60" fill="#272E7E"></path>
            <path d="M262.653284,199 C262.439407,196.791348 262.10452,194.93847 262.10452,193.088439 C262.073565,167.344546 262.180503,141.603498 262.000396,115.862451 C261.96944,111.664303 263.753624,109.341803 266.970221,107.369385 C275.31705,102.246222 283.579454,96.9750569 291.934726,91.8604326 C293.662627,90.8044918 295.649431,90.1840199 298.336964,89 C298.60431,91.4619644 298.939196,93.1127613 298.939196,94.7607121 C298.950453,119.616591 298.778789,144.472469 298.998294,169.322656 C299.046135,174.90975 298.114644,178.98551 292.804305,181.92279 C283.604782,187.014645 274.762659,192.763972 265.740429,198.185986 C265.053771,198.598686 264.136351,198.624301 262.653284,199" id="Fill-62" fill="#272E7E"></path>
            <path d="M297.980917,744 C294.219548,742.077456 290.950638,740.563843 287.83739,738.78045 C281.129757,734.938202 274.546653,730.877289 267.827699,727.05776 C264.210671,725.001746 261.971963,722.582237 262,717.930646 C262.158758,691.912409 262.034228,665.891332 262.099323,639.870255 C262.102153,638.24589 262.908767,636.621525 263.341792,635 C264.935209,635.550921 266.687118,635.829221 268.09091,636.69252 C277.39386,642.403356 286.682658,648.13691 295.804474,654.128885 C297.304493,655.111456 298.855456,657.388974 298.866777,659.081494 C299.053572,686.335044 299,713.594274 298.965835,740.853503 C298.965835,741.509496 298.569604,742.16833 297.980917,744" id="Fill-64" fill="#272E7E"></path>
            <path d="M472.930831,351 C463.337446,345.225711 454.559385,339.936371 445.77292,334.661129 C444.282359,333.767355 442.741365,332.969443 441.256408,332.07003 C438.135195,330.18098 435.975002,327.922579 436,323.738474 C436.15712,298.222205 436.09548,272.703117 436.165525,247.186848 C436.17393,245.170921 436.647436,243.157815 437.050896,240 C442.181004,242.946354 446.490182,245.357007 450.740523,247.8748 C457.338778,251.785415 464.007077,255.591709 470.386791,259.837842 C472.062271,260.954355 473.774175,263.522899 473.790986,265.440143 C474.040347,292.010897 474.009527,318.58447 473.981509,345.158043 C473.981509,346.787701 473.412742,348.414539 472.930831,351" id="Fill-66" fill="#272E7E"></path>
            <path d="M474.125029,484 C474.422613,486.464579 474.908293,488.646758 474.913908,490.828937 C474.989708,516.621439 475.085159,542.411088 474.85776,568.197885 C474.838108,570.516985 473.184551,573.737482 471.295172,574.975476 C461.800554,581.191121 451.95501,586.85623 442.280718,592.798032 C438.925878,594.854701 436.997196,594.46961 437,590.093842 C437.011233,563.237349 436.980351,536.378005 437.193713,509.524365 C437.20775,507.558977 438.52442,504.786326 440.096563,503.782238 C450.396904,497.195766 460.933068,490.988678 471.410276,484.693163 C471.963333,484.36227 472.704486,484.35086 474.125029,484" id="Fill-68" fill="#272E7E"></path>
            <path d="M244.355159,713 C236.40306,708.42563 229.665744,704.559366 222.942788,700.670443 C222.173137,700.225752 221.547078,699.407181 220.737222,699.194749 C209.074717,696.10457 206.596327,688.408865 207.050076,677.181122 C207.948959,654.952231 207.282694,632.658195 207.337259,610.386818 C207.343003,607.877287 207.808239,605.364924 208.147115,602 C216.693684,606.874608 224.215009,611.16007 231.724847,615.462528 C232.336547,615.813749 232.804655,616.524688 233.445074,616.703131 C244.067976,619.637526 245.225324,627.183113 244.969731,636.753885 C244.363775,659.537932 244.78019,682.34747 244.754344,705.145679 C244.754344,707.22468 244.550444,709.30085 244.355159,713" id="Fill-70" fill="#272E7E"></path>
            <path d="M207.90356,232 C207.704897,228.453367 207.434255,225.849654 207.428497,223.243092 C207.385309,199.792581 208.11374,176.307886 207.028291,152.905804 C206.57914,143.208824 211.52844,139.297557 218.280102,135.406231 C225.354231,131.329739 232.53489,127.438413 239.577349,123.307795 C243.386496,121.074414 244.918216,121.555844 244.932612,125.88587 C245.021866,153.06818 245.062175,180.250489 244.794411,207.42995 C244.777136,209.566476 242.825057,212.460757 240.910406,213.677152 C232.062706,219.29764 222.932846,224.482277 213.849054,229.729585 C212.343246,230.598439 210.563917,231.002954 207.90356,232" id="Fill-72" fill="#272E7E"></path>
            <path d="M235.291918,595 C227.097161,590.236668 219.728101,585.962174 212.370351,581.667786 C211.765217,581.315368 211.298642,580.627584 210.665231,580.434322 C198.904709,576.822034 197.688785,568.156521 198.053562,557.262815 C198.800083,534.972354 198.24302,512.639262 198.333508,490.326064 C198.339163,488.549762 199.198792,486.77346 199.66254,485 C201.398765,485.653679 203.267894,486.079992 204.848594,487.000827 C213.331779,491.946052 221.684889,497.124328 230.213317,501.989975 C234.025095,504.167011 236.055404,506.57994 235.99885,511.49106 C235.718905,536.993076 235.897052,562.495091 235.871602,587.997106 C235.868774,590.023512 235.546413,592.047075 235.291918,595" id="Fill-74" fill="#272E7E"></path>
            <path d="M413.07938,519 C413.494497,522.079645 413.946577,523.890702 413.94942,525.704584 C413.997755,551.437982 414.07168,577.174205 413.838532,602.904778 C413.815786,605.295034 412.408368,608.645913 410.531811,609.886247 C400.264766,616.65864 389.65653,622.919643 379.144965,629.321913 C378.6019,629.655306 377.86265,629.672258 376.568963,630 C376.381307,628.010945 376.08845,626.341156 376.08845,624.671367 C376.057175,598.759971 376.1311,572.854227 376,546.942831 C375.980406,543.043831 376.915842,540.232596 380.455712,538.189859 C391.063948,532.075776 401.57267,525.78652 413.07938,519" id="Fill-76" fill="#272E7E"></path>
            <path d="M409.99142,154.383694 C409.99142,167.40685 409.974328,180.427181 410,193.450338 C410.008511,197.897821 408.438968,199.132605 404.579204,196.94277 C395.546501,191.819971 386.653376,186.45417 377.777342,181.068591 C374.3591,178.994606 372.974712,175.94014 373,171.763914 C373.148473,146.590709 373.023137,121.417505 373.111442,96.2442999 C373.119988,94.4952581 374.131217,92.7490418 374.675287,91 C376.444227,91.5905489 378.389777,91.8872361 379.956471,92.8168561 C388.128916,97.6599218 396.124753,102.805326 404.35417,107.54667 C408.387695,109.869308 409.840447,112.86161 409.740749,117.453198 C409.472986,129.758654 409.649596,142.072587 409.649596,154.383694 L409.99142,154.383694 Z" id="Fill-78" fill="#272E7E"></path>
            <path d="M376.921162,202 C383.026557,205.927517 388.231344,209.382936 393.544089,212.662029 C398.655121,215.815988 403.879794,218.790776 409.059011,221.839508 C412.317684,223.756341 414.030831,226.224904 413.99958,230.38847 C413.806389,256.262875 413.908667,282.140123 413.829118,308.014527 C413.823435,309.678248 413.121698,311.339124 412.740999,313 C410.993759,312.46249 409.061852,312.240661 407.52769,311.339124 C398.257375,305.898616 388.975696,300.460953 379.94687,294.627978 C378.097352,293.430669 376.230789,290.578171 376.210902,288.470792 C375.943844,261.180092 376.000665,233.883705 376.01487,206.590161 C376.01487,205.589085 376.395569,204.585165 376.921162,202" id="Fill-80" fill="#272E7E"></path>
            <path d="M409.867759,679.98767 C409.867759,693.023377 410.13672,706.070374 409.6503,719.089144 C409.547294,721.838554 407.329793,725.454565 404.966367,727.00993 C396.548448,732.54827 387.64411,737.366796 378.928618,742.464779 C374.339107,745.146442 373.048664,744.50002 373.037219,739.052009 C372.982855,713.152788 373.048664,687.256389 373,661.357168 C372.9943,658.051665 374.078729,655.945854 377.171785,654.173133 C386.408033,648.880377 395.361013,643.113389 404.522867,637.690784 C405.690274,637 407.655981,636.767727 408.843416,637.270186 C409.613104,637.594809 409.939291,639.635695 409.947875,640.90878 C410.02513,653.936018 409.993655,666.963255 409.993655,679.98767 L409.867759,679.98767 Z" id="Fill-82" fill="#272E7E"></path>
            <path d="M198.498888,349 C198.323305,346.736108 198.099579,345.21733 198.096747,343.698552 C198.079755,317.551025 198.178874,291.406353 198.00046,265.26168 C197.97214,261.182106 199.249362,258.572778 202.653398,256.577241 C211.908299,251.153035 221.055585,245.548974 230.299158,240.107639 C234.139319,237.846602 235.705402,238.98283 235.713898,244.110132 C235.747882,267.408524 235.150335,290.729754 235.965944,313.999598 C236.334101,324.391234 233.807978,331.014475 223.944202,335.134017 C217.037009,338.020265 210.840644,342.625131 204.284617,346.384962 C202.67039,347.309932 200.886244,347.932288 198.498888,349" id="Fill-84" fill="#272E7E"></path>
            <polygon id="Path-2" stroke="#282E7C" stroke-width="6" stroke-linejoin="round" points="580 243 630 272 630 586 583 614"></polygon>
            <polygon id="Path-3" stroke="#282E7C" stroke-width="6" stroke-linejoin="round" points="36 272 84 243 84 614 36 589"></polygon>
        </g>
    </g>
</svg>