<svg xmlns="http://www.w3.org/2000/svg" width="30" height="30" viewBox="0 0 30 30"><g transform="translate(-9869 -9967)"><g transform="translate(9869 9967)"><g transform="translate(2.824)"><path d="M72.729,0H53.671A2.473,2.473,0,0,0,51.2,2.471V28.941h2.118V2.471a.358.358,0,0,1,.353-.353H72.729a.358.358,0,0,1,.353.353V28.941H75.2V2.471A2.474,2.474,0,0,0,72.729,0Z" transform="translate(-51.2)"/></g><g transform="translate(7.059 4.235)"><g transform="translate(0)"><path d="M128.776,72.282h-4.235a1.059,1.059,0,0,0-1.059,1.059v4.235a1.059,1.059,0,0,0,1.059,1.059h4.235a1.059,1.059,0,0,0,1.059-1.059V73.341A1.059,1.059,0,0,0,128.776,72.282Zm-1.059,4.235H125.6V74.4h2.118Z" transform="translate(-123.482 -72.282)"/></g></g><g transform="translate(15.882 4.235)"><path d="M279.365,72.282H275.13a1.059,1.059,0,0,0-1.059,1.059v4.235a1.059,1.059,0,0,0,1.059,1.059h4.235a1.059,1.059,0,0,0,1.059-1.059V73.341A1.059,1.059,0,0,0,279.365,72.282Zm-1.059,4.235h-2.118V74.4h2.118Z" transform="translate(-274.071 -72.282)"/></g><g transform="translate(7.059 12.706)"><g transform="translate(0)"><path d="M128.776,216.847h-4.235a1.059,1.059,0,0,0-1.059,1.059v4.235a1.059,1.059,0,0,0,1.059,1.059h4.235a1.059,1.059,0,0,0,1.059-1.059v-4.235A1.059,1.059,0,0,0,128.776,216.847Zm-1.059,4.235H125.6v-2.118h2.118Z" transform="translate(-123.482 -216.847)"/></g></g><g transform="translate(15.882 12.706)"><path d="M279.365,216.847H275.13a1.059,1.059,0,0,0-1.059,1.059v4.235a1.059,1.059,0,0,0,1.059,1.059h4.235a1.059,1.059,0,0,0,1.059-1.059v-4.235A1.059,1.059,0,0,0,279.365,216.847Zm-1.059,4.235h-2.118v-2.118h2.118Z" transform="translate(-274.071 -216.847)"/></g><g transform="translate(8.824 21.176)"><path d="M164.188,361.412h-9.529a1.059,1.059,0,0,0-1.059,1.059v6.706h2.118V363.53h7.412v5.647h2.118v-6.706A1.059,1.059,0,0,0,164.188,361.412Z" transform="translate(-153.6 -361.412)"/></g><g transform="translate(0 27.882)"><g transform="translate(0)"><path d="M31.6,475.859H4.07a1.059,1.059,0,0,0,0,2.118H31.6a1.059,1.059,0,0,0,0-2.118Z" transform="translate(-3.011 -475.859)"/></g></g></g><g transform="translate(9869 9967)" stroke="#707070" stroke-width="1" opacity="0"><rect width="30" height="30" stroke="none"/><rect x="0.5" y="0.5" width="29" height="29" fill="none"/></g></g></svg>