<svg xmlns="http://www.w3.org/2000/svg" width="30" height="30" viewBox="0 0 30 30">
                                <g id="Group_6602" data-name="Group 6602" transform="translate(10875 2450)">
                                    <g id="meeting" transform="translate(-10886.015 -2666.959)">
                                        <g id="Group_6591" data-name="Group 6591" transform="translate(21.673 222.959)">
                                            <g id="Group_6590" data-name="Group 6590" transform="translate(0 0)">
                                                <path id="Path_12585" data-name="Path 12585"
                                                    d="M189.457,222.959h-.1a4.281,4.281,0,0,0-4.276,4.276v.1a4.281,4.281,0,0,0,4.276,4.276h.1a4.281,4.281,0,0,0,4.276-4.276v-.1A4.281,4.281,0,0,0,189.457,222.959Zm2.3,4.375a2.278,2.278,0,0,1-2.3,2.3h-.1a2.305,2.305,0,0,1-2.3-2.3v-.1a2.305,2.305,0,0,1,2.3-2.3h.1a2.306,2.306,0,0,1,2.3,2.3Z"
                                                    transform="translate(-185.082 -222.959)" />
                                            </g>
                                        </g>
                                        <g id="Group_6593" data-name="Group 6593" transform="translate(18.022 232.005)">
                                            <g id="Group_6592" data-name="Group 6592" transform="translate(0 0)">
                                                <path id="Path_12586" data-name="Path 12586"
                                                    d="M136.761,370.7a.978.978,0,0,0-.746.274,3.7,3.7,0,0,1-5.145,0,.987.987,0,0,0-.761-.273,5.074,5.074,0,0,0-4.66,5.03v2.632a.987.987,0,0,0,.987.987h14.013a.987.987,0,0,0,.987-.987v-2.632A5.025,5.025,0,0,0,136.761,370.7Zm2.7,6.676h-12.04v-1.645a3.048,3.048,0,0,1,2.449-3.007,5.677,5.677,0,0,0,7.148,0,3.058,3.058,0,0,1,2.443,3.012Z"
                                                    transform="translate(-125.449 -370.698)" />
                                            </g>
                                        </g>
                                        <g id="Group_6595" data-name="Group 6595" transform="translate(31.048 224.966)">
                                            <g id="Group_6594" data-name="Group 6594" transform="translate(0 0)">
                                                <path id="Path_12587" data-name="Path 12587"
                                                    d="M341.883,255.731h-.065a3.623,3.623,0,0,0-3.618,3.618v.1a3.623,3.623,0,0,0,3.618,3.618h.065a3.639,3.639,0,0,0,3.618-3.651v-.066A3.623,3.623,0,0,0,341.883,255.731Zm1.645,3.684a1.663,1.663,0,0,1-1.645,1.678h-.065a1.647,1.647,0,0,1-1.645-1.645v-.1a1.647,1.647,0,0,1,1.645-1.645h.065a1.647,1.647,0,0,1,1.645,1.645Z"
                                                    transform="translate(-338.199 -255.731)" />
                                            </g>
                                        </g>
                                        <g id="Group_6597" data-name="Group 6597" transform="translate(34.699 232.663)">
                                            <g id="Group_6596" data-name="Group 6596" transform="translate(0 0)">
                                                <path id="Path_12588" data-name="Path 12588"
                                                    d="M400.5,381.448h-.329a.986.986,0,0,0-.7.289,2.194,2.194,0,0,1-1.637.7v1.974a4.119,4.119,0,0,0,2.717-.986,1.659,1.659,0,0,1,1.625,1.677v1.02h-4.342v1.974h5.329a.987.987,0,0,0,.987-.987V385.1A3.656,3.656,0,0,0,400.5,381.448Z"
                                                    transform="translate(-397.835 -381.448)" />
                                            </g>
                                        </g>
                                        <g id="Group_6599" data-name="Group 6599" transform="translate(13.679 224.965)">
                                            <g id="Group_6598" data-name="Group 6598" transform="translate(0 0)">
                                                <path id="Path_12589" data-name="Path 12589"
                                                    d="M58.214,255.726h-.066a3.623,3.623,0,0,0-3.618,3.618v.066a3.639,3.639,0,0,0,3.618,3.652h.066a3.623,3.623,0,0,0,3.618-3.618v-.1A3.623,3.623,0,0,0,58.214,255.726Zm1.645,3.718a1.647,1.647,0,0,1-1.645,1.645h-.066a1.663,1.663,0,0,1-1.645-1.678v-.066a1.647,1.647,0,0,1,1.645-1.645h.066a1.647,1.647,0,0,1,1.645,1.645Z"
                                                    transform="translate(-54.53 -255.726)" />
                                            </g>
                                        </g>
                                        <g id="Group_6601" data-name="Group 6601" transform="translate(11.015 232.663)">
                                            <g id="Group_6600" data-name="Group 6600" transform="translate(0 0)">
                                                <path id="Path_12590" data-name="Path 12590"
                                                    d="M12.989,386.12V385.1a1.659,1.659,0,0,1,1.625-1.677,4.118,4.118,0,0,0,2.717.986v-1.974a2.194,2.194,0,0,1-1.637-.7.987.987,0,0,0-.7-.289h-.329a3.655,3.655,0,0,0-3.651,3.651v2.007a.987.987,0,0,0,.987.987h5.362V386.12Z"
                                                    transform="translate(-11.015 -381.449)" />
                                            </g>
                                        </g>
                                    </g>
                                    <g id="Rectangle_1217" data-name="Rectangle 1217"
                                        transform="translate(-10875 -2450)" stroke="#707070" stroke-width="1"
                                        opacity="0">
                                        <rect width="30" height="30" stroke="none" />
                                        <rect x="0.5" y="0.5" width="29" height="29" fill="none" />
                                    </g>
                                </g>
                            </svg>
