<svg xmlns="http://www.w3.org/2000/svg" width="30" height="30" viewBox="0 0 30 30">
  <g id="_003-linkedin" data-name="003-linkedin" transform="translate(0 0.001)">
    <circle id="Ellipse_42" data-name="Ellipse 42" cx="15" cy="15" r="15" transform="translate(0 -0.001)" fill="#007ab9"/>
    <g id="Group_6555" data-name="Group 6555" transform="translate(7.238 6.408)">
      <path id="Path_12577" data-name="Path 12577" d="M43.793,33.767v6.184H40.207v-5.77c0-1.449-.518-2.438-1.816-2.438a1.961,1.961,0,0,0-1.839,1.311,2.454,2.454,0,0,0-.119.874v6.023H32.848s.048-9.772,0-10.784h3.586V30.7c-.007.012-.017.024-.024.035h.024V30.7a3.56,3.56,0,0,1,3.231-1.781c2.359,0,4.127,1.541,4.127,4.853Zm-14.7-9.8A1.868,1.868,0,1,0,29.05,27.7h.023a1.869,1.869,0,1,0,.024-3.727ZM27.281,39.951h3.584V29.167H27.281Z" transform="translate(-27.068 -23.969)" fill="#f1f2f2"/>
    </g>
  </g>
</svg>
