 <svg xmlns="http://www.w3.org/2000/svg" width="30" height="30" viewBox="0 0 30 30"><g transform="translate(-6983 -11111)"><g transform="translate(6983 11111)"><g transform="translate(18.565 12.996)"><g transform="translate(0 0)"><rect width="4.019" height="1.925" transform="matrix(0.734, -0.679, 0.679, 0.734, 0, 2.727)"/></g></g><g transform="translate(11.876 14.715)"><g transform="translate(0)"><rect width="1.925" height="3.805" transform="translate(0 1.818) rotate(-70.804)"/></g></g><g transform="translate(6.087 15.627)"><g transform="translate(0 0)"><rect width="3.513" height="1.925" transform="matrix(0.63, -0.776, 0.776, 0.63, 0, 2.727)"/></g></g><g transform="translate(7.54 12.096)"><path d="M141.092,206.443a2.827,2.827,0,0,0-2.824,2.824,2.768,2.768,0,0,0,.827,2l.033.031a2.9,2.9,0,0,0,1.963.8,2.782,2.782,0,0,0,2.771-2.327,1.9,1.9,0,0,0,.053-.5A2.827,2.827,0,0,0,141.092,206.443Zm.9,2.865a1,1,0,0,0-.022.111.892.892,0,0,1-1.526.467.856.856,0,0,1-.248-.619.9.9,0,1,1,1.8,0C141.99,209.28,141.99,209.294,141.99,209.308Z" transform="translate(-138.268 -206.443)"/></g><g transform="translate(3.08 17.743)"><path d="M66.845,303.517l-.049-.042a2.9,2.9,0,0,0-1.821-.66,2.824,2.824,0,1,0,2.824,2.823A2.858,2.858,0,0,0,66.845,303.517Zm-1.87,3.02a.9.9,0,0,1,0-1.8.993.993,0,0,1,.592.219.922.922,0,0,1,.306.68A.9.9,0,0,1,64.976,306.537Z" transform="translate(-62.152 -302.815)"/></g><g transform="translate(20.182 9.209)"><path d="M356.849,157.159a2.827,2.827,0,0,0-2.824,2.824,2.765,2.765,0,0,0,.784,1.952,1.975,1.975,0,0,0,.6.491,2.714,2.714,0,0,0,1.4.38,2.782,2.782,0,0,0,2.771-2.327,1.893,1.893,0,0,0,.053-.5A2.811,2.811,0,0,0,356.849,157.159Zm.866,2.864a1.016,1.016,0,0,0-.022.112.871.871,0,0,1-.876.746.8.8,0,0,1-.42-.11c-.026-.016-.067-.038-.094-.051a.958.958,0,0,0-.088-.1.858.858,0,0,1-.263-.635.882.882,0,1,1,1.764,0C357.714,160,357.714,160.01,357.714,160.023Z" transform="translate(-354.025 -157.159)"/></g><g transform="translate(14.759 14.567)"><path d="M265.829,249.058a2.747,2.747,0,0,0-1.529-.45,2.833,2.833,0,0,0-2.763,2.206,2.462,2.462,0,0,0-.06.618,2.823,2.823,0,1,0,5.647,0A2.786,2.786,0,0,0,265.829,249.058ZM264.3,252.33a.9.9,0,0,1-.9-.9,1.2,1.2,0,0,1,.007-.168.933.933,0,0,1,.891-.73.865.865,0,0,1,.485.142.884.884,0,0,1,.414.756A.9.9,0,0,1,264.3,252.33Z" transform="translate(-261.477 -248.608)"/></g><g transform="translate(0 5.807)"><path d="M37.5,99.114H10.546a.963.963,0,0,0-.963.963v19.251a.962.962,0,0,0,.963.963H37.5a.962.962,0,0,0,.963-.963V100.077A.963.963,0,0,0,37.5,99.114Zm-.963,19.251H11.508V101.039H36.535v17.326Z" transform="translate(-9.583 -99.114)"/></g><g transform="translate(3.85 25.091)"><path d="M79.922,428.5a.962.962,0,0,0-1.361,0l-2.984,2.984a.962.962,0,1,0,1.361,1.361l2.984-2.984A.962.962,0,0,0,79.922,428.5Z" transform="translate(-75.295 -428.219)"/></g><g transform="translate(20.182 25.059)"><path d="M358.588,430.939l-2.92-2.984a.963.963,0,0,0-1.376,1.346l2.92,2.984a.962.962,0,1,0,1.376-1.346Z" transform="translate(-354.017 -427.665)"/></g><g transform="translate(3.85 2.92)"><path d="M95.508,49.831H76.257a.963.963,0,0,0,0,1.925H95.508a.963.963,0,0,0,0-1.925Z" transform="translate(-75.294 -49.831)"/></g><g transform="translate(10.267)"><path d="M192.193,0h-6.417a.963.963,0,0,0,0,1.925h6.417a.963.963,0,1,0,0-1.925Z" transform="translate(-184.813)"/></g></g><g transform="translate(6983 11111)" stroke="#707070" stroke-width="1" opacity="0"><rect width="30" height="30" stroke="none"/><rect x="0.5" y="0.5" width="29" height="29" fill="none"/></g></g></svg>
