<svg xmlns="http://www.w3.org/2000/svg" width="30" height="30" viewBox="0 0 30 30"><g transform="translate(-9192 -11441)"><g transform="translate(9192 11442.305)"><g transform="translate(3.143 3.049)"><g transform="translate(0 0)"><path d="M73.847,82.622a.934.934,0,0,0-1.319-.058L66.2,88.351l-4.04-3.5a.934.934,0,0,0-1.223,0l-6.971,6.037A.933.933,0,1,0,55.191,92.3l6.36-5.508,4.057,3.516a.934.934,0,0,0,1.242-.017l6.94-6.349A.934.934,0,0,0,73.847,82.622Z" transform="translate(-53.646 -82.319)"/></g></g><g transform="translate(19.699 0)"><g transform="translate(0 0)"><path d="M343.089,30.55a.935.935,0,0,0-.835-.26l-5.29,1a.934.934,0,0,0-.488,1.578l4.263,4.263a.934.934,0,0,0,1.577-.481l1.027-5.259A.934.934,0,0,0,343.089,30.55Zm-2.27,4.017-1.773-1.773,2.2-.414Z" transform="translate(-336.202 -30.275)"/></g></g><g transform="translate(0 24.585)"><path d="M29.066,449.858H.934a.934.934,0,1,0,0,1.867H29.066a.934.934,0,1,0,0-1.867Z" transform="translate(0 -449.858)"/></g><g transform="translate(14.066 17.956)"><g transform="translate(0 0)"><path d="M241,336.729a.934.934,0,0,0-.934.934v6.629a.934.934,0,1,0,1.867,0v-6.629A.934.934,0,0,0,241,336.729Z" transform="translate(-240.066 -336.729)"/></g></g><g transform="translate(10.332 12.355)"><g transform="translate(0 0)"><path d="M177.266,241.127a.934.934,0,0,0-.934.934v12.23a.934.934,0,0,0,1.867,0v-12.23A.934.934,0,0,0,177.266,241.127Z" transform="translate(-176.332 -241.127)"/></g></g><g transform="translate(17.801 15.467)"><path d="M304.734,294.239a.934.934,0,0,0-.934.934v9.118a.934.934,0,1,0,1.867,0v-9.118A.934.934,0,0,0,304.734,294.239Z" transform="translate(-303.8 -294.239)"/></g><g transform="translate(21.535 8.931)"><g transform="translate(0 0)"><path d="M368.469,182.7a.934.934,0,0,0-.934.934v15.653a.934.934,0,1,0,1.867,0V183.638A.934.934,0,0,0,368.469,182.7Z" transform="translate(-367.535 -182.704)"/></g></g><g transform="translate(25.27 12.355)"><g transform="translate(0 0)"><path d="M432.2,241.127a.934.934,0,0,0-.934.934v12.23a.934.934,0,1,0,1.867,0v-12.23A.934.934,0,0,0,432.2,241.127Z" transform="translate(-431.269 -241.127)"/></g></g><g transform="translate(6.597 20.446)"><g transform="translate(0 0)"><path d="M113.531,379.219a.934.934,0,0,0-.934.934v4.139a.934.934,0,0,0,1.867,0v-4.139A.934.934,0,0,0,113.531,379.219Z" transform="translate(-112.597 -379.219)"/></g></g><g transform="translate(2.863 17.645)"><path d="M49.8,331.418a.934.934,0,0,0-.934.934v6.94a.934.934,0,0,0,1.867,0v-6.94A.934.934,0,0,0,49.8,331.418Z" transform="translate(-48.863 -331.418)"/></g></g><g transform="translate(9192 11441)" stroke="#707070" stroke-width="1" opacity="0"><rect width="30" height="30" stroke="none"/><rect x="0.5" y="0.5" width="29" height="29" fill="none"/></g></g></svg>