<svg xmlns="http://www.w3.org/2000/svg" width="30" height="30" viewBox="0 0 30 30"><g transform="translate(-5530 -9020)"><g transform="translate(5530 9021.304)"><g transform="translate(0 4.178)"><path d="M25.658,115.162v5.757H3.355a1.367,1.367,0,0,1-1.382-1.382V100.491H0v19.046a3.359,3.359,0,0,0,3.355,3.355H26.645a.987.987,0,0,0,.987-.987v-6.743Z" transform="translate(0 -100.491)"/></g><g transform="translate(20.559 12.467)"><path d="M359.331,241.965h-7.467a.987.987,0,0,0-.987.987v5.395a.987.987,0,0,0,.987.987h7.467a.987.987,0,0,0,.987-.987v-5.395A.987.987,0,0,0,359.331,241.965Zm-.987,5.395h-5.493v-3.421h5.493Z" transform="translate(-350.877 -241.965)"/></g><g transform="translate(0 0)"><path d="M26.612,35.114H24.243V30.18a.987.987,0,0,0-.987-.987H3.947a3.947,3.947,0,0,0,0,7.895H25.625V42.68H27.6V36.1A.987.987,0,0,0,26.612,35.114Zm-4.342,0H3.947a1.974,1.974,0,1,1,0-3.947H22.27Z" transform="translate(0 -29.193)"/></g><g transform="translate(2.993 2.993)"><path d="M71.351,80.281H52.075a.987.987,0,1,0,0,1.974H71.351a.987.987,0,1,0,0-1.974Z" transform="translate(-51.088 -80.281)"/></g></g><g transform="translate(5530 9020)" stroke="#707070" stroke-width="1" opacity="0"><rect width="30" height="30" stroke="none"/><rect x="0.5" y="0.5" width="29" height="29" fill="none"/></g></g></svg>