<svg xmlns="http://www.w3.org/2000/svg" width="30" height="30" viewBox="0 0 30 30"><g transform="translate(-8975 -9666)"><g transform="translate(8975 9667.305)"><g transform="translate(11.929 7.45)"><path d="M212.221,144.4h-7.451a1.189,1.189,0,0,0,0,2.378h7.451a1.189,1.189,0,0,0,0-2.378Z" transform="translate(-203.582 -144.402)"/></g><g transform="translate(11.929 13.197)"><path d="M215.075,242.473h-10.3a1.189,1.189,0,1,0,0,2.378h10.3a1.189,1.189,0,1,0,0-2.378Z" transform="translate(-203.582 -242.473)"/></g><g transform="translate(0 0)"><path d="M28.811,17.247H7.767a1.189,1.189,0,0,0-1.189,1.189V29.651h-2.1A4.483,4.483,0,0,0,0,34.129v6.618a4.479,4.479,0,0,0,5.074,4.439H24.69A5.317,5.317,0,0,0,30,39.876V18.436A1.189,1.189,0,0,0,28.811,17.247ZM6.579,40.748a2.1,2.1,0,0,1-1.694,2.061H4.478v.04a2.1,2.1,0,0,1-2.1-2.1V34.129a2.1,2.1,0,0,1,2.1-2.1h2.1v8.719Zm21.044-.872a2.972,2.972,0,0,1-2.933,2.933H8.453a4.449,4.449,0,0,0,.5-2.061V19.625H27.622Z" transform="translate(0 -17.247)"/></g><g transform="translate(11.929 18.587)"><path d="M212.221,334.464h-7.451a1.189,1.189,0,1,0,0,2.378h7.451a1.189,1.189,0,0,0,0-2.378Z" transform="translate(-203.582 -334.464)"/></g></g><g transform="translate(8975 9666)" stroke="#707070" stroke-width="1" opacity="0"><rect width="30" height="30" stroke="none"/><rect x="0.5" y="0.5" width="29" height="29" fill="none"/></g></g></svg>