<svg xmlns="http://www.w3.org/2000/svg" width="23" height="23" viewBox="0 0 23 23">
  <g id="Group_6192" data-name="Group 6192" transform="translate(-697 -50)">
    <g id="Group_6190" data-name="Group 6190" transform="translate(-4683 -9917)" opacity="0.65">
      <g id="_001-chat" data-name="001-chat" transform="translate(5380 9967)">
        <g id="Group_5976" data-name="Group 5976" transform="translate(6.437 7.209)">
          <g id="Group_5975" data-name="Group 5975">
            <path id="Path_12426" data-name="Path 12426" d="M156.61,160.478H148.6a.858.858,0,0,0,0,1.716h8.01a.858.858,0,0,0,0-1.716Z" transform="translate(-147.742 -160.478)"/>
          </g>
        </g>
        <g id="Group_5978" data-name="Group 5978" transform="translate(6.437 10.642)">
          <g id="Group_5977" data-name="Group 5977">
            <path id="Path_12427" data-name="Path 12427" d="M156.61,236.9H148.6a.858.858,0,1,0,0,1.716h8.01a.858.858,0,0,0,0-1.716Z" transform="translate(-147.742 -236.896)"/>
          </g>
        </g>
        <g id="Group_5980" data-name="Group 5980" transform="translate(6.437 14.075)">
          <g id="Group_5979" data-name="Group 5979">
            <path id="Path_12428" data-name="Path 12428" d="M156.61,313.313H148.6a.858.858,0,0,0,0,1.716h8.01a.858.858,0,1,0,0-1.716Z" transform="translate(-147.742 -313.313)"/>
          </g>
        </g>
        <g id="Group_5982" data-name="Group 5982" transform="translate(0)">
          <g id="Group_5981" data-name="Group 5981">
            <path id="Path_12429" data-name="Path 12429" d="M15.758,0A11.306,11.306,0,0,0,5.233,15.419a11.135,11.135,0,0,0,1.578,2.774l-1.54,3.612A.858.858,0,0,0,6.06,23a.83.83,0,0,0,.148-.013l5.836-1.018a10.971,10.971,0,0,0,3.714.631,11.3,11.3,0,1,0,0-22.6Zm0,20.883a9.23,9.23,0,0,1-3.325-.6.853.853,0,0,0-.455-.044l-4.508.787,1.125-2.637a.859.859,0,0,0-.141-.9,9.334,9.334,0,0,1-1.623-2.7,9.585,9.585,0,1,1,8.927,6.091Z" transform="translate(-4.458)"/>
          </g>
        </g>
      </g>
      <g id="Rectangle_787" data-name="Rectangle 787" transform="translate(5380 9967)" stroke="#707070" stroke-width="1" opacity="0">
        <rect width="23" height="23" stroke="none"/>
        <rect x="0.5" y="0.5" width="22" height="22" fill="none"/>
      </g>
    </g>
  </g>
</svg>
